<mxfile host="app.diagrams.net" agent="Mozilla/5.0 (Windows NT 10.0; Win64; x64; rv:140.0) Gecko/20100101 Firefox/140.0" version="28.1.0">
  <diagram name="Страница — 1" id="ls_Fy9mCg1k26mbbEDVw">
    <mxGraphModel dx="756" dy="884" grid="1" gridSize="10" guides="1" tooltips="1" connect="1" arrows="1" fold="1" page="1" pageScale="1" pageWidth="827" pageHeight="1169" math="0" shadow="0">
      <root>
        <mxCell id="0" />
        <mxCell id="1" parent="0" />
        <mxCell id="j5hoecukJLAH6W0jeRj7-17" value="Infrastructure Layer (Infrastructure.DataAccess)" style="whiteSpace=wrap;strokeWidth=2;" vertex="1" parent="1">
          <mxGeometry x="1381" y="430" width="232" height="64" as="geometry" />
        </mxCell>
        <mxCell id="j5hoecukJLAH6W0jeRj7-18" value="Domain Layer (Domain)" style="whiteSpace=wrap;strokeWidth=2;verticalAlign=top;" vertex="1" parent="1">
          <mxGeometry x="1016" y="641" width="305" height="258" as="geometry" />
        </mxCell>
        <mxCell id="j5hoecukJLAH6W0jeRj7-19" value="Entities" style="whiteSpace=wrap;strokeWidth=2;" vertex="1" parent="j5hoecukJLAH6W0jeRj7-18">
          <mxGeometry x="43" y="46" width="235" height="54" as="geometry" />
        </mxCell>
        <mxCell id="j5hoecukJLAH6W0jeRj7-20" value="Repository Interfaces" style="whiteSpace=wrap;strokeWidth=2;" vertex="1" parent="j5hoecukJLAH6W0jeRj7-18">
          <mxGeometry x="54" y="175" width="212" height="54" as="geometry" />
        </mxCell>
        <mxCell id="j5hoecukJLAH6W0jeRj7-23" value="Data Transfer Objects" style="whiteSpace=wrap;strokeWidth=2;" vertex="1" parent="j5hoecukJLAH6W0jeRj7-18">
          <mxGeometry x="32" y="110.5" width="256" height="54" as="geometry" />
        </mxCell>
        <mxCell id="j5hoecukJLAH6W0jeRj7-21" value="Application Layer (Application)" style="whiteSpace=wrap;strokeWidth=2;verticalAlign=top;" vertex="1" parent="1">
          <mxGeometry x="1005" y="333" width="326" height="258" as="geometry" />
        </mxCell>
        <mxCell id="j5hoecukJLAH6W0jeRj7-22" value="Application Services" style="whiteSpace=wrap;strokeWidth=2;" vertex="1" parent="j5hoecukJLAH6W0jeRj7-21">
          <mxGeometry x="69" y="46" width="204" height="54" as="geometry" />
        </mxCell>
        <mxCell id="j5hoecukJLAH6W0jeRj7-24" value="Presentation Layer (WebAPI)" style="whiteSpace=wrap;strokeWidth=2;verticalAlign=top;" vertex="1" parent="1">
          <mxGeometry x="1003" y="130" width="330" height="153" as="geometry" />
        </mxCell>
        <mxCell id="j5hoecukJLAH6W0jeRj7-25" value="API Controllers / REST Endpoints" style="whiteSpace=wrap;strokeWidth=2;" vertex="1" parent="j5hoecukJLAH6W0jeRj7-24">
          <mxGeometry x="43" y="46" width="260" height="78" as="geometry" />
        </mxCell>
        <mxCell id="j5hoecukJLAH6W0jeRj7-26" value="" style="curved=1;startArrow=none;endArrow=block;exitX=0.5;exitY=1;entryX=0.5;entryY=0;rounded=0;" edge="1" parent="1" source="j5hoecukJLAH6W0jeRj7-24" target="j5hoecukJLAH6W0jeRj7-21">
          <mxGeometry relative="1" as="geometry">
            <Array as="points" />
          </mxGeometry>
        </mxCell>
        <mxCell id="j5hoecukJLAH6W0jeRj7-27" value="" style="curved=1;startArrow=none;endArrow=block;exitX=0.05;exitY=1;entryX=0;entryY=0.04;rounded=0;" edge="1" parent="1" source="j5hoecukJLAH6W0jeRj7-24" target="j5hoecukJLAH6W0jeRj7-18">
          <mxGeometry relative="1" as="geometry">
            <Array as="points">
              <mxPoint x="970" y="308" />
              <mxPoint x="970" y="616" />
            </Array>
          </mxGeometry>
        </mxCell>
        <mxCell id="j5hoecukJLAH6W0jeRj7-28" value="" style="curved=1;startArrow=none;endArrow=block;exitX=1;exitY=0.83;entryX=0.5;entryY=0;rounded=0;" edge="1" parent="1" source="j5hoecukJLAH6W0jeRj7-24" target="j5hoecukJLAH6W0jeRj7-17">
          <mxGeometry relative="1" as="geometry">
            <Array as="points">
              <mxPoint x="1497" y="308" />
            </Array>
          </mxGeometry>
        </mxCell>
        <mxCell id="j5hoecukJLAH6W0jeRj7-29" value="" style="curved=1;startArrow=none;endArrow=block;exitX=0.5;exitY=1;entryX=0.5;entryY=0;rounded=0;" edge="1" parent="1" source="j5hoecukJLAH6W0jeRj7-21" target="j5hoecukJLAH6W0jeRj7-18">
          <mxGeometry relative="1" as="geometry">
            <Array as="points" />
          </mxGeometry>
        </mxCell>
        <mxCell id="j5hoecukJLAH6W0jeRj7-30" value="" style="curved=1;startArrow=none;endArrow=block;exitX=0.5;exitY=1;entryX=1;entryY=0.22;rounded=0;" edge="1" parent="1" source="j5hoecukJLAH6W0jeRj7-17" target="j5hoecukJLAH6W0jeRj7-18">
          <mxGeometry relative="1" as="geometry">
            <Array as="points">
              <mxPoint x="1497" y="616" />
            </Array>
          </mxGeometry>
        </mxCell>
      </root>
    </mxGraphModel>
  </diagram>
</mxfile>
